<svg width="1200" height="800" viewBox="0 0 1200 800" fill="none" xmlns="http://www.w3.org/2000/svg">
  <rect width="1200" height="800" rx="40" fill="#F8F8F5"/>
  <rect x="60" y="60" width="1080" height="680" rx="32" fill="#FFFFFF" stroke="#D7E0DA" stroke-width="4"/>
  <circle cx="140" cy="140" r="50" fill="#BAE0C3"/>
  <rect x="230" y="110" width="360" height="20" rx="10" fill="#E9EFE8"/>
  <rect x="230" y="140" width="240" height="14" rx="7" fill="#F2F6F2"/>
  <rect x="200" y="250" width="800" height="26" rx="13" fill="#E9EFE8"/>
  <rect x="260" y="310" width="680" height="18" rx="9" fill="#F2F6F2"/>
  <rect x="300" y="360" width="600" height="18" rx="9" fill="#F2F6F2"/>
  <rect x="260" y="430" width="680" height="14" rx="7" fill="#F2F6F2"/>
  <rect x="260" y="470" width="680" height="14" rx="7" fill="#F2F6F2"/>
  <rect x="220" y="560" width="360" height="12" rx="6" fill="#E9EFE8"/>
  <rect x="620" y="560" width="360" height="12" rx="6" fill="#E9EFE8"/>
  <rect x="180" y="660" width="840" height="6" rx="3" fill="#BAE0C3"/>
</svg>
